<svg width="96" height="120" viewBox="0 0 96 120" fill="none" xmlns="http://www.w3.org/2000/svg">
<g clip-path="url(#clip0)">
<path d="M41.5977 118.269C42.1754 118.558 42.1754 119.135 41.5977 119.712C41.0199 120 39.8644 120 39.2867 119.712C38.709 119.423 38.709 118.846 39.2867 118.269C39.8644 117.981 41.0199 117.981 41.5977 118.269Z" fill="#16110D"/>
<path d="M35.2421 114.519C35.8198 114.808 35.8198 115.385 35.2421 115.962C34.6643 116.25 33.5088 116.25 32.9311 115.962C32.3534 115.673 32.3534 115.096 32.9311 114.519C33.5088 114.231 34.6643 114.231 35.2421 114.519Z" fill="#16110D"/>
<path d="M28.8866 111.058C29.4643 111.346 29.4643 111.923 28.8866 112.5C28.3089 112.788 27.1534 112.788 26.5756 112.5C25.9979 112.212 25.9979 111.635 26.5756 111.058C27.1534 110.481 28.3089 110.481 28.8866 111.058Z" fill="#16110D"/>
<path d="M22.532 107.308C23.1097 107.596 23.1097 108.173 22.532 108.75C21.9542 109.038 20.7988 109.038 20.221 108.75C19.6433 108.462 19.6433 107.885 20.221 107.308C20.7988 107.019 21.9542 107.019 22.532 107.308Z" fill="#16110D"/>
<path d="M16.1765 103.558C16.7543 103.846 16.7543 104.423 16.1765 105C15.5988 105.289 14.4433 105.289 13.8656 105C13.2878 104.712 13.2878 104.135 13.8656 103.558C14.4433 103.269 15.5988 103.269 16.1765 103.558Z" fill="#16110D"/>
<path d="M10.1102 100.096C10.688 100.385 10.688 100.962 10.1102 101.539C9.53249 101.827 8.37701 101.827 7.79927 101.539C7.22153 101.25 7.22153 100.673 7.79927 100.096C8.08814 99.5193 9.24362 99.5193 10.1102 100.096Z" fill="#16110D"/>
<path d="M3.7553 96.3463C4.33304 96.6347 4.33304 97.2117 3.7553 97.7886C2.88869 98.0771 2.02208 98.0771 1.15547 97.7886C0.577733 97.5001 0.577733 96.9232 1.15547 96.3463C2.02208 96.0578 2.88869 96.0578 3.7553 96.3463Z" fill="#16110D"/>
<path d="M51.7077 118.269C52.2855 117.981 53.4409 117.981 54.0187 118.269C54.5964 118.558 54.5964 119.135 54.0187 119.712C53.4409 120 52.2855 120 51.7077 119.712C51.13 119.423 51.13 118.558 51.7077 118.269Z" fill="#16110D"/>
<path d="M60.6624 114.808C61.2401 115.096 61.2401 115.673 60.6624 116.25C60.0846 116.538 58.9291 116.538 58.3514 116.25C57.7737 115.962 57.7737 115.385 58.3514 114.808C58.9291 114.231 59.7957 114.231 60.6624 114.808Z" fill="#16110D"/>
<path d="M66.7289 111.058C67.3066 111.346 67.3066 111.923 66.7289 112.5C66.1512 112.789 64.9957 112.789 64.4179 112.5C63.8402 112.212 63.8402 111.635 64.4179 111.058C64.9957 110.769 66.1512 110.769 66.7289 111.058Z" fill="#16110D"/>
<path d="M73.0844 107.308C73.6621 107.596 73.6621 108.173 73.0844 108.75C72.5066 109.038 71.3511 109.038 70.7734 108.75C70.1957 108.462 70.1957 107.885 70.7734 107.308C71.3511 107.019 72.5066 107.019 73.0844 107.308Z" fill="#16110D"/>
<path d="M79.4388 103.846C80.0166 104.135 80.0166 104.711 79.4388 105.288C78.8611 105.577 77.7056 105.577 77.1279 105.288C76.5501 105 76.5501 104.423 77.1279 103.846C77.7056 103.269 78.8611 103.269 79.4388 103.846Z" fill="#16110D"/>
<path d="M85.7943 100.096C86.3721 100.385 86.3721 100.962 85.7943 101.538C85.2166 101.827 84.0611 101.827 83.4834 101.538C82.9056 101.25 82.9056 100.673 83.4834 100.096C84.0611 99.8077 85.2166 99.8077 85.7943 100.096Z" fill="#16110D"/>
<path d="M45.3523 114.808C45.93 114.519 47.0855 114.519 47.6632 114.808C48.241 115.096 48.241 115.673 47.6632 116.25C47.0855 116.538 45.93 116.538 45.3523 116.25C44.7745 115.673 44.7745 115.096 45.3523 114.808Z" fill="#16110D"/>
<path d="M54.3077 111.058C54.8855 111.346 54.8855 111.923 54.3077 112.5C53.73 112.789 52.5745 112.789 51.9968 112.5C51.419 112.212 51.419 111.635 51.9968 111.058C52.5745 110.769 53.4411 110.769 54.3077 111.058Z" fill="#16110D"/>
<path d="M60.6624 107.308C61.2401 107.596 61.2401 108.173 60.6624 108.75C60.0846 109.038 58.9291 109.038 58.3514 108.75C57.7737 108.462 57.7737 107.885 58.3514 107.308C58.9291 107.019 59.7957 107.019 60.6624 107.308Z" fill="#16110D"/>
<path d="M66.7289 103.846C67.3066 104.135 67.3066 104.711 66.7289 105.288C66.1512 105.577 64.9957 105.577 64.4179 105.288C63.8402 105 63.8402 104.423 64.4179 103.846C64.9957 103.269 66.1512 103.269 66.7289 103.846Z" fill="#16110D"/>
<path d="M73.0844 100.096C73.6621 100.385 73.6621 100.962 73.0844 101.538C72.5066 101.827 71.3511 101.827 70.7734 101.538C70.1957 101.25 70.1957 100.673 70.7734 100.096C71.3511 99.8077 72.5066 99.8077 73.0844 100.096Z" fill="#16110D"/>
<path d="M79.4388 96.3463C80.0166 96.6347 80.0166 97.2117 79.4388 97.7886C78.8611 98.0771 77.7056 98.0771 77.1279 97.7886C76.5501 97.5001 76.5501 96.9232 77.1279 96.3463C77.7056 96.0578 78.8611 96.0578 79.4388 96.3463Z" fill="#16110D"/>
<path d="M85.7943 92.8847C86.3721 93.1731 86.3721 93.7501 85.7943 94.327C85.2166 94.6155 84.0611 94.6155 83.4834 94.327C82.9056 94.0385 82.9056 93.4616 83.4834 92.8847C84.0611 92.3078 85.2166 92.3078 85.7943 92.8847Z" fill="#16110D"/>
<path d="M39.2863 111.058C39.864 110.769 41.0195 110.769 41.5973 111.058C42.175 111.346 42.175 111.923 41.5973 112.5C41.0195 112.789 39.864 112.789 39.2863 112.5C38.4197 111.923 38.4197 111.346 39.2863 111.058Z" fill="#16110D"/>
<path d="M47.9522 107.308C48.5299 107.596 48.5299 108.173 47.9522 108.75C47.3744 109.038 46.2189 109.038 45.6412 108.75C45.0635 108.462 45.0635 107.885 45.6412 107.308C46.2189 107.019 47.3744 107.019 47.9522 107.308Z" fill="#16110D"/>
<path d="M54.3077 103.846C54.8855 104.135 54.8855 104.711 54.3077 105.288C53.73 105.577 52.5745 105.577 51.9968 105.288C51.419 105 51.419 104.423 51.9968 103.846C52.5745 103.269 53.4411 103.269 54.3077 103.846Z" fill="#16110D"/>
<path d="M60.6624 100.096C61.2401 100.385 61.2401 100.962 60.6624 101.538C60.0846 101.827 58.9291 101.827 58.3514 101.538C57.7737 101.25 57.7737 100.673 58.3514 100.096C58.9291 99.8077 59.7957 99.8077 60.6624 100.096Z" fill="#16110D"/>
<path d="M66.7289 96.3463C67.3066 96.6347 67.3066 97.2117 66.7289 97.7886C66.1512 98.0771 64.9957 98.0771 64.4179 97.7886C63.8402 97.5001 63.8402 96.9232 64.4179 96.3463C64.9957 96.0578 66.1512 96.0578 66.7289 96.3463Z" fill="#16110D"/>
<path d="M73.0844 92.8847C73.6621 93.1731 73.6621 93.7501 73.0844 94.327C72.5066 94.6155 71.3511 94.6155 70.7734 94.327C70.1957 94.0385 70.1957 93.4616 70.7734 92.8847C71.3511 92.3078 72.5066 92.3078 73.0844 92.8847Z" fill="#16110D"/>
<path d="M79.4388 89.1347C80.0166 89.4232 80.0166 90.0001 79.4388 90.5771C78.8611 90.8655 77.7056 90.8655 77.1279 90.5771C76.5501 90.2886 76.5501 89.7117 77.1279 89.1347C77.7056 88.8463 78.8611 88.8463 79.4388 89.1347Z" fill="#16110D"/>
<path d="M32.9308 107.308C33.5086 107.019 34.6641 107.019 35.2418 107.308C35.8195 107.596 35.8195 108.173 35.2418 108.75C34.6641 109.038 33.5086 109.038 32.9308 108.75C32.0642 108.462 32.0642 107.885 32.9308 107.308Z" fill="#16110D"/>
<path d="M41.5977 103.846C42.1754 104.135 42.1754 104.711 41.5977 105.288C41.0199 105.577 39.8644 105.577 39.2867 105.288C38.709 105 38.709 104.423 39.2867 103.846C39.8644 103.269 41.0199 103.269 41.5977 103.846Z" fill="#16110D"/>
<path d="M47.9522 100.096C48.5299 100.385 48.5299 100.962 47.9522 101.538C47.3744 101.827 46.2189 101.827 45.6412 101.538C45.0635 101.25 45.0635 100.673 45.6412 100.096C46.2189 99.8077 47.3744 99.8077 47.9522 100.096Z" fill="#16110D"/>
<path d="M54.3077 96.3463C54.8855 96.6347 54.8855 97.2117 54.3077 97.7886C53.73 98.0771 52.5745 98.0771 51.9968 97.7886C51.419 97.5001 51.419 96.9232 51.9968 96.3463C52.5745 96.0578 53.4411 96.0578 54.3077 96.3463Z" fill="#16110D"/>
<path d="M60.6624 92.8847C61.2401 93.1731 61.2401 93.7501 60.6624 94.327C60.0846 94.6155 58.9291 94.6155 58.3514 94.327C57.7737 94.0385 57.7737 93.4616 58.3514 92.8847C58.9291 92.3078 59.7957 92.3078 60.6624 92.8847Z" fill="#16110D"/>
<path d="M66.7289 89.1347C67.3066 89.4232 67.3066 90.0001 66.7289 90.5771C66.1512 90.8655 64.9957 90.8655 64.4179 90.5771C63.8402 90.2886 63.8402 89.7117 64.4179 89.1347C64.9957 88.8463 66.1512 88.8463 66.7289 89.1347Z" fill="#16110D"/>
<path d="M73.0844 85.3847C73.6621 85.6731 73.6621 86.2501 73.0844 86.827C72.5066 87.1154 71.3511 87.1154 70.7734 86.827C70.1957 86.5385 70.1957 85.9616 70.7734 85.3847C71.3511 85.0962 72.5066 85.0962 73.0844 85.3847Z" fill="#16110D"/>
<path d="M26.5756 103.846C27.1534 103.558 28.3089 103.558 28.8866 103.846C29.4643 104.135 29.4643 104.712 28.8866 105.289C28.3089 105.577 27.1534 105.577 26.5756 105.289C25.9979 104.712 25.9979 104.135 26.5756 103.846Z" fill="#16110D"/>
<path d="M35.2421 101.538C34.6643 101.827 33.5088 101.827 32.9311 101.538C32.3534 101.25 32.3534 100.673 32.9311 100.096C33.5088 99.8077 35.8198 100.962 35.2421 101.538Z" fill="#16110D"/>
<path d="M39.2863 96.3463C39.864 96.0578 41.0195 96.0578 41.5973 96.3463C42.175 96.6347 42.175 97.2117 41.5973 97.7886C41.0195 98.0771 39.864 98.0771 39.2863 97.7886C38.4197 97.5001 38.4197 96.9232 39.2863 96.3463C39.864 96.0578 38.4197 96.9232 39.2863 96.3463Z" fill="#16110D"/>
<path d="M47.9522 92.8847C48.5299 93.1731 48.5299 93.7501 47.9522 94.327C47.3744 94.6155 46.2189 94.6155 45.6412 94.327C45.0635 94.0385 45.0635 93.4616 45.6412 92.8847C46.2189 92.3078 47.3744 92.3078 47.9522 92.8847Z" fill="#16110D"/>
<path d="M54.3077 89.1347C54.8855 89.4232 54.8855 90.0001 54.3077 90.5771C53.73 90.8655 52.5745 90.8655 51.9968 90.5771C51.419 90.2886 51.419 89.7117 51.9968 89.1347C52.5745 88.8463 53.4411 88.8463 54.3077 89.1347Z" fill="#16110D"/>
<path d="M60.6624 85.3847C61.2401 85.6731 61.2401 86.2501 60.6624 86.827C60.0846 87.1154 58.9291 87.1154 58.3514 86.827C57.7737 86.5385 57.7737 85.9616 58.3514 85.3847C58.9291 85.0962 59.7957 85.0962 60.6624 85.3847Z" fill="#16110D"/>
<path d="M20.221 100.096C20.7988 99.8077 21.9542 99.8077 22.532 100.096C23.1097 100.385 23.1097 100.962 22.532 101.538C21.9542 101.827 20.7988 101.827 20.221 101.538C19.6433 101.25 19.6433 100.385 20.221 100.096Z" fill="#16110D"/>
<path d="M28.8866 96.3463C29.4643 96.6347 29.4643 97.2117 28.8866 97.7886C28.3089 98.0771 27.1534 98.0771 26.5756 97.7886C25.9979 97.5001 25.9979 96.9232 26.5756 96.3463C27.1534 96.0578 28.3089 96.0578 28.8866 96.3463C29.7532 96.9232 28.3089 96.0578 28.8866 96.3463Z" fill="#16110D"/>
<path d="M13.8656 96.3463C14.4433 96.0578 15.5988 96.0578 16.1765 96.3463C16.7543 96.6347 16.7543 97.2117 16.1765 97.7886C15.5988 98.0771 14.4433 98.0771 13.8656 97.7886C13.2878 97.5001 13.2878 96.9232 13.8656 96.3463Z" fill="#16110D"/>
<path d="M22.532 92.8847C23.1097 93.1731 23.1097 93.7501 22.532 94.327C21.9542 94.6155 20.7988 94.6155 20.221 94.327C19.6433 94.0385 19.6433 93.4616 20.221 92.8847C20.7988 92.3078 21.9542 92.3078 22.532 92.8847Z" fill="#16110D"/>
<path d="M7.51094 92.8846C8.08868 92.5962 9.24416 92.5962 9.8219 92.8846C10.3996 93.1731 10.3996 93.75 9.8219 94.3269C9.24416 94.6154 8.08868 94.6154 7.51094 94.3269C6.9332 93.75 6.9332 93.1731 7.51094 92.8846Z" fill="#16110D"/>
<path d="M16.1765 90.5769C15.5988 90.8654 14.4433 90.8654 13.8656 90.5769C13.2878 90.2884 13.2878 89.7115 13.8656 89.1346C14.4433 88.8461 17.0431 90.2884 16.1765 90.5769Z" fill="#16110D"/>
<path d="M1.15547 89.1347C1.73321 88.8463 2.88869 88.8463 3.46643 89.1347C4.04417 89.4232 4.04417 90.0001 3.46643 90.5771C2.88869 90.8655 1.73321 90.8655 1.15547 90.5771C0.577733 90.0001 0.577733 89.4232 1.15547 89.1347Z" fill="#16110D"/>
<path d="M9.8219 86.827C9.24416 87.1155 8.08868 87.1155 7.51094 86.827C6.9332 86.5386 6.9332 85.9617 7.51094 85.3847C8.08868 85.0963 10.6885 86.5386 9.8219 86.827Z" fill="#16110D"/>
<path d="M56.3296 65.4809L51.9965 62.8848C51.4188 62.5963 50.841 62.3079 50.2633 62.3079C45.9302 61.4425 41.3083 66.0578 40.1528 72.1155C39.2862 77.0194 40.7306 81.0578 43.6193 82.7886L47.6635 85.0963C48.5301 85.6732 49.1078 85.9617 50.2633 85.9617C54.3075 86.5386 58.6405 82.5002 59.796 76.7309C61.2404 71.8271 59.5071 66.9232 56.3296 65.4809Z" fill="#FF9900"/>
<path d="M59.2184 67.2116C58.6407 66.3462 57.774 65.7693 57.1963 65.1924L51.7078 62.0193C51.4189 61.7308 50.8412 61.7308 50.5523 61.7308C45.9304 60.8655 41.0196 65.4808 39.8641 72.1155C38.9975 76.7308 40.153 81.0578 43.0417 83.077L47.9525 85.6731C48.8191 86.2501 49.6857 86.5385 50.5523 86.5385C50.8412 86.5385 51.13 86.5385 51.13 86.5385C55.1742 86.5385 59.5073 82.5001 60.6627 76.7308C61.5294 73.2693 60.9516 69.8078 59.2184 67.2116ZM54.8853 68.077C54.8853 68.3655 54.8853 68.6539 55.1742 68.9424C54.8853 68.9424 54.8853 68.9424 54.5965 68.6539C51.7078 68.077 48.8191 71.2501 47.9525 75.2885C47.3747 77.5962 47.9525 79.9039 48.8191 81.3462C49.1079 81.6347 49.1079 81.6347 49.3968 81.9231C49.1079 81.9231 48.8191 82.2116 48.5302 82.2116H48.2413L47.6636 83.6539C47.3747 83.3654 47.0859 83.077 46.797 82.7885C45.3526 80.7693 44.7749 77.5962 45.3526 74.4231C46.2192 69.2308 49.9746 65.1924 53.7299 65.1924C54.0187 65.1924 54.3076 65.1924 54.5965 65.1924C54.8853 65.1924 55.1742 65.1924 55.4631 65.4808L54.8853 68.077ZM49.3968 81.0578C48.5302 79.6155 47.9525 77.5962 48.5302 75.2885C49.1079 72.1155 51.4189 69.2308 53.7299 69.2308C54.0187 69.2308 54.0187 69.2308 54.3076 69.2308C54.5965 69.2308 54.8853 69.2308 55.1742 69.5193C55.4631 70.9616 55.1742 72.4039 54.8853 74.1347C54.0187 77.3078 52.2855 80.1924 49.9746 81.6347C49.6857 81.6347 49.3968 81.3462 49.3968 81.0578ZM56.0408 74.4231C56.3297 73.2693 56.3297 71.827 56.3297 70.6731C57.1963 72.1155 57.4852 74.1347 57.1963 76.4424C56.3297 79.9039 53.7299 82.5001 51.4189 82.2116H51.13C53.441 80.4808 55.1742 77.5962 56.0408 74.4231ZM43.9083 82.2116C41.3085 80.7693 39.8641 76.7308 40.7307 72.1155C41.8862 66.3462 46.2192 62.0193 49.9746 62.8847C50.5523 62.8847 51.13 63.1731 51.4189 63.4616L52.8633 64.327C48.8191 64.9039 45.0638 68.9424 43.9083 74.7116C43.3305 77.8847 43.6194 80.7693 44.7749 83.077L43.9083 82.2116ZM59.5073 76.7308C58.3518 81.9231 54.3076 85.9616 50.5523 85.3847C49.9746 85.3847 49.3968 85.0962 48.8191 84.8078L49.3968 83.3654C49.6857 83.077 50.2634 83.077 50.5523 82.7885C50.8412 82.7885 51.13 83.077 51.4189 83.077C51.7078 83.077 51.7078 83.077 51.9966 83.077C54.5965 83.077 57.1963 80.4808 58.0629 76.7308C58.6407 74.4231 58.3518 72.1155 57.1963 70.3847C56.9074 70.0962 56.9074 69.8078 56.6186 69.5193C56.6186 68.9424 56.6186 68.3655 56.3297 67.5001L56.9074 66.0578C57.4852 66.3462 58.0629 66.9231 58.3518 67.7885C59.7961 70.0962 60.085 73.5578 59.5073 76.7308Z" fill="#16110D"/>
<path d="M74.8173 84.8077C75.9728 84.2308 75.6839 83.077 74.5285 82.2116L57.1962 72.1154C56.0408 71.25 54.0187 71.25 52.8632 71.8269L27.1538 86.827C26.2872 87.4039 25.9983 87.6923 25.9983 88.2693V90.2885V90.577C25.9983 91.1539 26.2872 91.4423 27.1538 91.7308L44.486 101.827C45.6415 102.692 47.6635 102.692 48.819 102.115L74.5285 87.1154C75.6839 86.5385 75.6839 85.6731 74.8173 84.8077Z" fill="#FF9900"/>
<path d="M75.9724 83.9424C75.9724 83.077 75.3947 82.5001 74.5281 81.9231L57.1959 71.827C55.7515 70.9616 53.4406 70.9616 52.2851 71.5385L26.5756 86.5385C25.9979 86.827 25.4202 87.4039 25.4202 88.2693V90.577C25.4202 91.1539 25.9979 92.0193 26.8645 92.3077L44.1967 102.404C45.0633 102.981 45.9299 102.981 46.7965 102.981C47.6632 102.981 48.2409 102.692 49.1075 102.404L74.8169 87.4039C75.3947 87.1154 75.9724 86.5385 75.9724 85.9616C75.9724 85.6731 75.9724 85.0962 75.6836 84.8077C75.9724 84.5193 75.9724 84.2308 75.9724 83.9424ZM26.8645 88.2693C26.8645 87.9808 26.8645 87.9808 27.1534 87.6924L52.8628 72.6924C53.7294 72.1154 55.4626 72.1154 56.6181 72.9808L73.9503 83.077C74.5281 83.3654 74.8169 83.6539 74.8169 83.9424C74.8169 84.2308 74.5281 84.2308 74.5281 84.5193L73.6615 85.0962L73.9503 85.3847L48.8186 99.8077C47.952 100.385 45.9299 100.385 44.7745 99.5193L27.4423 89.4231C27.1534 89.4231 27.1534 89.1347 26.8645 88.8462V88.2693ZM74.2392 86.5385L48.5298 101.539C47.6632 102.115 45.9299 102.115 44.7745 101.25L27.4423 91.1539C27.1534 90.8654 26.8645 90.577 26.8645 90.2885V89.4231C26.8645 89.4231 27.1534 89.4231 27.1534 89.7116L44.4856 99.8077C45.3522 100.096 46.2188 100.385 47.0854 100.385C47.952 100.385 48.5298 100.096 49.1075 99.8077L74.5281 85.0962C74.8169 85.3847 74.8169 85.6731 74.8169 85.6731C74.8169 86.2501 74.5281 86.5385 74.2392 86.5385Z" fill="#16110D"/>
<path d="M54.3081 71.827C53.4415 71.827 52.8638 71.2501 52.8638 70.3847V22.7886C52.8638 16.1539 56.3302 10.0962 61.8187 6.92316L72.2181 0.865469C72.7958 0.577008 73.9513 0.577008 74.2401 1.44239C74.529 2.01932 74.529 3.17316 73.6624 3.46162L63.552 9.51932C58.93 12.4039 56.0413 17.3078 56.0413 22.7886V70.0963C55.7525 71.2501 55.1747 71.827 54.3081 71.827Z" fill="#FF9900"/>
<path d="M54.3077 72.4038C53.1523 72.4038 52.2856 71.5385 52.2856 70.3846V22.7885C52.2856 16.1538 55.7521 9.80769 61.5295 6.34615L71.6399 0.288462C72.7954 -0.288462 73.9509 0 74.5286 1.15385C75.1064 1.44231 75.1064 2.01923 75.1064 2.59615C75.1064 3.17308 74.5286 3.75 74.2398 4.03846L64.1293 10.0962C59.5074 12.6923 56.9076 17.5962 56.9076 22.7885V70.0962C56.6187 71.5385 55.4632 72.4038 54.3077 72.4038ZM72.7954 1.15385C72.5065 1.15385 72.5065 1.15385 72.2177 1.15385L62.1072 7.21154C56.6187 10.3846 53.4411 16.4423 53.4411 22.5V69.8077C53.4411 70.3846 53.73 70.6731 54.3077 70.6731C54.8855 70.6731 55.1743 70.3846 55.1743 69.8077V22.7885C55.1743 17.0192 58.3519 11.8269 62.9738 8.94231L73.3732 2.88462C73.662 2.88462 73.662 2.59615 73.662 2.30769C73.662 2.01923 73.662 1.73077 73.662 1.73077C73.3732 1.44231 73.0843 1.15385 72.7954 1.15385Z" fill="#16110D"/>
<path d="M74.5291 82.5C73.6625 82.5 73.0847 81.9231 73.0847 81.0577V33.4615C73.0847 26.8269 76.5512 20.7692 82.0397 17.5962L92.439 11.5385C93.0167 11.25 94.1722 11.25 94.4611 12.1154C94.75 12.6923 94.75 13.8462 93.8834 14.1346L83.7729 20.1923C79.151 23.0769 76.2623 27.9808 76.2623 33.4615V80.7692C75.9734 81.6346 75.3957 82.5 74.5291 82.5Z" fill="#FF9900"/>
<path d="M74.5287 83.0768C73.3732 83.0768 72.5066 82.2115 72.5066 81.0576V33.4615C72.5066 26.8268 75.973 20.4807 81.7504 17.0191L91.8609 10.9615C92.4386 10.673 93.0164 10.673 93.5941 10.673C94.1718 10.673 94.7496 11.2499 95.0385 11.5384C95.3273 12.1153 95.3273 12.6922 95.0385 13.2691C95.0385 13.8461 94.4607 14.423 94.1718 14.7115L84.0614 20.7691C79.4395 23.3653 76.8396 28.2691 76.8396 33.4615V80.7691C76.5508 82.2115 75.6842 83.0768 74.5287 83.0768ZM93.0164 11.8268C92.7275 11.8268 92.7275 11.8268 92.4386 11.8268L82.3282 17.8845C76.8396 21.0576 73.6621 27.1153 73.6621 33.173V80.4807C73.6621 81.0576 73.9509 81.3461 74.5287 81.3461C75.1064 81.3461 75.3953 81.0576 75.3953 80.4807V33.4615C75.3953 27.6922 78.5729 22.4999 83.1948 19.6153L93.3052 13.5576C93.5941 13.5576 93.5941 13.2691 93.5941 12.9807C93.5941 12.6922 93.5941 12.4038 93.5941 12.4038C93.5941 12.1153 93.5941 12.1153 93.0164 11.8268C93.3052 11.8268 93.0164 11.8268 93.0164 11.8268Z" fill="#16110D"/>
<path d="M71.6399 56.8269C71.0621 56.8269 70.1955 56.5385 69.6178 56.25L57.1963 49.0385C55.1743 47.8846 53.441 44.7115 53.441 41.8269V40.9615C53.441 39.2308 54.0188 37.7885 55.1743 37.2115C56.3297 36.6346 57.4852 36.6346 58.6407 37.5L71.351 44.7115C73.3731 45.8654 75.1063 49.0385 75.1063 51.9231V52.7885C75.1063 54.5192 74.5286 55.9615 73.3731 56.5385C72.7953 56.5385 72.2176 56.8269 71.6399 56.8269ZM71.0621 53.6539C71.351 53.9423 71.6399 53.9423 71.6399 53.9423C71.6399 53.9423 71.9287 53.6539 71.9287 52.7885V51.9231C71.9287 50.1923 70.7732 48.1731 69.6178 47.3077L56.9075 40.0962C56.6186 39.8077 56.3297 39.8077 56.3297 39.8077C56.3297 39.8077 56.0409 40.0962 56.0409 40.9615V41.8269C56.0409 43.5577 57.1964 45.5769 58.3518 46.4423L71.0621 53.6539Z" fill="#FF9900"/>
<path d="M71.6401 57.4039C70.7735 57.4039 70.1958 57.1155 69.3292 56.827L56.6189 49.6155C54.3079 48.1732 52.5747 45.0001 52.5747 41.827V40.9616C52.5747 38.9424 53.4413 37.5001 54.5968 36.6347C55.7523 36.0578 57.1966 36.0578 58.641 36.9232L71.3513 44.1347C73.6622 45.577 75.3954 48.7501 75.3954 51.9232V52.7886C75.3954 54.8078 74.5288 56.2501 73.3734 57.1155C72.7956 57.1155 72.2179 57.4039 71.6401 57.4039ZM56.6189 37.5001C56.33 37.5001 55.7523 37.5001 55.4634 37.7886C54.5968 38.3655 54.0191 39.5193 54.0191 40.9616V41.827C54.0191 44.4232 55.4634 47.3078 57.4855 48.4616L70.1958 55.6732C71.0624 56.2501 72.2179 56.2501 73.0845 55.9616C73.9511 55.3847 74.5288 54.2309 74.5288 52.7886V51.9232C74.5288 49.327 73.0845 46.4424 71.0624 45.2886L58.3521 38.077C57.7744 37.7886 57.1966 37.5001 56.6189 37.5001ZM71.6401 54.5193C71.3513 54.5193 71.0624 54.5193 70.7735 54.2309L58.0632 47.0193C56.6189 46.1539 55.4634 43.8462 55.4634 41.827V40.9616C55.4634 40.0962 55.7523 39.5193 56.0411 39.2309C56.33 38.9424 56.9078 39.2309 57.1966 39.5193L69.9069 46.7309C71.3513 47.5963 72.5067 49.9039 72.5067 51.9232V52.7886C72.5067 53.6539 72.2179 54.2309 71.929 54.5193C71.929 54.2309 71.929 54.5193 71.6401 54.5193ZM56.9078 40.6732V40.9616V41.827C56.9078 43.2693 57.7744 45.2886 58.9298 45.8655L71.3513 53.077V52.7886V51.9232C71.3513 50.4809 70.4847 48.4616 69.3292 47.8847L56.9078 40.6732Z" fill="#16110D"/>
<path d="M64.4184 47.8847L32.3538 29.7116L0.578125 47.8847V84.8078L32.3538 102.981V66.3462L64.4184 47.8847Z" fill="#FFEECC"/>
<path d="M0.578125 84.5192L32.3538 102.981V66.3461L0.578125 47.8846V84.5192Z" fill="#FF9900"/>
<path d="M64.9958 47.5962L32.3534 28.8462L0 47.5962V48.4615V85.0962L31.7757 103.558L32.3534 103.846L32.9312 103.558L64.418 85.3846L64.7069 85.0962V48.4615L64.9958 47.5962ZM32.3534 30.2885L47.3747 38.9423L16.7545 56.5385L1.73322 47.8846L32.3534 30.2885ZM31.7757 101.827L1.15548 84.2308V49.0385L31.7757 66.6346V101.827ZM45.3526 58.2692L32.3534 65.7692L17.3322 57.1154L47.9524 39.5192L62.9737 48.1731L45.3526 58.2692Z" fill="#16110D"/>
<path d="M19.932 66.3461L14.1546 62.8846C13.5769 62.5961 12.7103 62.5961 12.4214 62.8846C11.8437 63.173 11.5548 64.0384 11.5548 64.9038C11.5548 66.6346 12.4214 68.3653 13.8658 68.9423L19.6432 72.4038C19.932 72.6923 20.2209 72.6923 20.7986 72.6923C21.0875 72.6923 21.3764 72.6923 21.6653 72.4038C22.243 72.1153 22.5319 71.25 22.5319 70.3846C21.9541 68.9423 21.0875 67.2115 19.932 66.3461ZM20.5098 71.5384C20.2209 71.5384 19.932 71.5384 19.932 71.5384L14.1546 68.0769C13.288 67.5 12.7103 66.3461 12.7103 65.1923C12.7103 64.6154 12.9992 64.3269 12.9992 64.3269C13.288 64.3269 13.5769 64.3269 13.5769 64.3269L13.8658 64.6153C14.1546 66.0577 14.7324 67.5 15.8879 68.0769L20.7986 70.9615C20.7986 71.25 20.5098 71.25 20.5098 71.5384Z" fill="#16110D"/>
<path d="M59.7958 73.8462C59.5069 73.5577 59.2181 73.5577 58.6403 73.8462L54.0184 76.4423C53.4407 76.7308 52.8629 77.8846 52.8629 78.75V83.6539C52.8629 84.2308 53.1518 84.5193 53.4407 84.8077C53.4407 84.8077 53.7295 84.8077 54.0184 84.8077C54.3073 84.8077 54.3073 84.8077 54.5961 84.5193L59.2181 81.9231C59.7958 81.6346 60.3735 80.4808 60.3735 79.6154V75C60.0847 74.7116 60.0847 74.1346 59.7958 73.8462Z" fill="#FF9900"/>
<path d="M77.9947 77.8846L73.6617 75.2885C73.0839 75 72.5062 74.7115 71.9285 74.7115C67.5954 73.8462 62.9735 78.4615 61.818 84.5192C60.9514 89.4231 62.3958 93.4615 65.2845 95.1923L69.3286 97.5L70.1952 95.4808C73.0839 94.3269 75.6838 90.8654 76.8393 86.8269C77.417 84.5192 77.417 82.2115 76.8393 80.4808L77.9947 77.8846Z" fill="#FF9900"/>
<path d="M81.171 79.6153C80.5932 78.7499 79.7266 78.173 79.1489 77.5961L73.6603 74.423C73.3715 74.1345 72.7937 74.1345 72.5048 74.1345C67.8829 73.2692 62.9721 77.8845 61.8167 84.5192C60.95 89.423 62.3944 94.0384 65.572 95.7692L69.3273 98.0769C70.1939 98.6538 71.0605 98.9422 71.9271 98.9422C72.216 98.9422 72.5048 98.9422 72.5048 98.9422C76.549 98.9422 80.8821 94.9038 82.0376 89.1345C83.193 85.673 82.6153 81.923 81.171 79.6153ZM62.6833 84.5192C63.5499 79.3268 67.3052 75.2884 71.0605 75.2884C71.3494 75.2884 71.6382 75.2884 71.9271 75.2884C72.5048 75.2884 73.0826 75.5768 73.3715 75.8653L74.8158 76.7307C70.7716 77.3076 67.0163 81.3461 65.8608 87.1153C65.2831 90.2884 65.572 93.173 66.7274 95.4807L65.572 94.9038C62.9721 93.173 61.8167 88.8461 62.6833 84.5192Z" fill="#16110D"/>
<path d="M73.6616 95.4806C73.3727 95.4806 73.3727 95.4806 73.0839 95.4806C71.9284 95.4806 71.0618 94.9037 70.484 93.7498C69.3286 92.3075 69.0397 89.9998 69.3286 87.6921C70.1952 83.6537 73.0839 80.7691 75.9726 81.0575C77.128 81.346 77.9947 81.9229 78.5724 82.7883C79.7279 84.2306 80.0168 86.8268 79.439 89.1345C78.5724 92.8845 76.2614 95.4806 73.6616 95.4806ZM75.3948 81.6345C73.0839 81.6345 70.7729 84.2306 69.9063 87.6921C69.6174 89.9998 69.9063 92.0191 70.7729 93.4614C71.3506 94.3268 72.2173 94.6152 73.0839 94.9037C75.3948 95.1922 77.9947 92.596 78.8613 89.1345C79.439 86.8268 79.1501 84.8075 77.9947 83.3652C77.4169 82.4998 76.5503 81.9229 75.6837 81.9229C75.9726 81.6345 75.6837 81.6345 75.3948 81.6345Z" fill="#FF9900"/>
<path d="M76.2612 88.5577C75.6835 90.577 74.2391 92.0193 72.7948 92.0193C71.3505 91.7308 70.4838 90 71.0616 87.9808C71.3504 85.9616 73.0837 84.2308 74.528 84.5193C75.9723 84.8077 76.839 86.5385 76.2612 88.5577Z" fill="#FF9900"/>
<path d="M77.4172 89.423C76.8395 91.4422 75.3952 92.8845 73.9508 92.8845C72.5065 92.596 71.6398 90.8653 72.2176 88.846C72.5065 86.8268 74.2397 85.0961 75.684 85.3845C77.1284 85.3845 77.995 87.1153 77.4172 89.423Z" fill="#FFEECC"/>
</g>
<defs>
<clipPath id="clip0">
<rect width="95.3271" height="120" fill="white"/>
</clipPath>
</defs>
</svg>
