<svg width="78" height="120" viewBox="0 0 78 120" fill="none" xmlns="http://www.w3.org/2000/svg">
<path d="M25.756 118.931C26.1804 119.167 26.1804 119.56 25.756 119.811C25.3315 120.047 24.6554 120.047 24.231 119.811C23.8065 119.575 23.8065 119.182 24.231 118.931C24.6554 118.695 25.3315 118.695 25.756 118.931Z" fill="#16110D"/>
<path d="M29.7335 116.636C30.158 116.871 30.158 117.264 29.7335 117.516C29.309 117.752 28.633 117.752 28.2085 117.516C27.784 117.28 27.784 116.887 28.2085 116.636C28.633 116.4 29.309 116.4 29.7335 116.636Z" fill="#16110D"/>
<path d="M33.711 114.34C34.1355 114.576 34.1355 114.969 33.711 115.221C33.2866 115.456 32.6105 115.456 32.186 115.221C31.7616 114.985 31.7616 114.592 32.186 114.34C32.6105 114.104 33.2866 114.104 33.711 114.34Z" fill="#16110D"/>
<path d="M37.6886 112.045C38.1131 112.281 38.1131 112.674 37.6886 112.925C37.2641 113.161 36.5881 113.161 36.1636 112.925C35.7391 112.689 35.7391 112.296 36.1636 112.045C36.5881 111.809 37.2641 111.809 37.6886 112.045Z" fill="#16110D"/>
<path d="M40.9116 110.819C41.502 110.819 41.9807 110.537 41.9807 110.19C41.9807 109.842 41.502 109.561 40.9116 109.561C40.3212 109.561 39.8425 109.842 39.8425 110.19C39.8425 110.537 40.3212 110.819 40.9116 110.819Z" fill="#16110D"/>
<path d="M45.6437 107.454C46.0681 107.69 46.0681 108.083 45.6437 108.335C45.2192 108.57 44.5431 108.57 44.1187 108.335C43.6942 108.099 43.6942 107.706 44.1187 107.454C44.5431 107.203 45.2349 107.203 45.6437 107.454Z" fill="#16110D"/>
<path d="M48.8667 106.212C49.4571 106.212 49.9357 105.931 49.9357 105.583C49.9357 105.236 49.4571 104.954 48.8667 104.954C48.2762 104.954 47.7976 105.236 47.7976 105.583C47.7976 105.931 48.2762 106.212 48.8667 106.212Z" fill="#16110D"/>
<path d="M53.6146 102.848C54.0391 103.084 54.0391 103.477 53.6146 103.728C53.1901 103.964 52.5141 103.964 52.0896 103.728C51.6651 103.492 51.6651 103.099 52.0896 102.848C52.4984 102.612 53.1901 102.612 53.6146 102.848Z" fill="#16110D"/>
<path d="M56.822 101.621C57.4124 101.621 57.8911 101.34 57.8911 100.993C57.8911 100.645 57.4124 100.364 56.822 100.364C56.2316 100.364 55.7529 100.645 55.7529 100.993C55.7529 101.34 56.2316 101.621 56.822 101.621Z" fill="#16110D"/>
<path d="M17.0305 120C17.6209 120 18.0996 119.718 18.0996 119.371C18.0996 119.024 17.6209 118.742 17.0305 118.742C16.4401 118.742 15.9614 119.024 15.9614 119.371C15.9614 119.718 16.4401 120 17.0305 120Z" fill="#16110D"/>
<path d="M21.7784 116.636C22.2029 116.871 22.2029 117.264 21.7784 117.516C21.3539 117.752 20.6779 117.752 20.2534 117.516C19.8289 117.28 19.8289 116.887 20.2534 116.636C20.6779 116.4 21.3539 116.4 21.7784 116.636Z" fill="#16110D"/>
<path d="M24.9856 115.409C25.576 115.409 26.0546 115.128 26.0546 114.78C26.0546 114.433 25.576 114.152 24.9856 114.152C24.3951 114.152 23.9165 114.433 23.9165 114.78C23.9165 115.128 24.3951 115.409 24.9856 115.409Z" fill="#16110D"/>
<path d="M29.7335 112.045C30.158 112.281 30.158 112.674 29.7335 112.925C29.309 113.161 28.633 113.161 28.2085 112.925C27.784 112.689 27.784 112.296 28.2085 112.045C28.633 111.809 29.309 111.809 29.7335 112.045Z" fill="#16110D"/>
<path d="M32.9565 110.819C33.5469 110.819 34.0256 110.537 34.0256 110.19C34.0256 109.842 33.5469 109.561 32.9565 109.561C32.3661 109.561 31.8875 109.842 31.8875 110.19C31.8875 110.537 32.3661 110.819 32.9565 110.819Z" fill="#16110D"/>
<path d="M37.6886 107.454C38.1131 107.69 38.1131 108.083 37.6886 108.335C37.2641 108.57 36.5881 108.57 36.1636 108.335C35.7391 108.099 35.7391 107.706 36.1636 107.454C36.5881 107.203 37.2641 107.203 37.6886 107.454Z" fill="#16110D"/>
<path d="M41.6661 105.159C42.0906 105.395 42.0906 105.788 41.6661 106.039C41.2416 106.275 40.5656 106.275 40.1411 106.039C39.7166 105.803 39.7166 105.41 40.1411 105.159C40.5656 104.907 41.2416 104.907 41.6661 105.159Z" fill="#16110D"/>
<path d="M45.6437 102.848C46.0681 103.084 46.0681 103.477 45.6437 103.728C45.2192 103.964 44.5431 103.964 44.1187 103.728C43.6942 103.492 43.6942 103.099 44.1187 102.848C44.5431 102.612 45.2349 102.612 45.6437 102.848Z" fill="#16110D"/>
<path d="M49.6214 100.552C50.0459 100.788 50.0459 101.181 49.6214 101.433C49.197 101.669 48.5209 101.669 48.0964 101.433C47.672 101.197 47.672 100.804 48.0964 100.552C48.5209 100.317 49.2127 100.317 49.6214 100.552Z" fill="#16110D"/>
<path d="M53.6146 98.257C54.0391 98.4928 54.0391 98.8859 53.6146 99.1374C53.1901 99.3732 52.5141 99.3732 52.0896 99.1374C51.6651 98.9016 51.6651 98.5086 52.0896 98.257C52.4984 98.0212 53.1901 98.0212 53.6146 98.257Z" fill="#16110D"/>
<path d="M13.053 117.705C13.6434 117.705 14.122 117.423 14.122 117.076C14.122 116.728 13.6434 116.447 13.053 116.447C12.4625 116.447 11.9839 116.728 11.9839 117.076C11.9839 117.423 12.4625 117.705 13.053 117.705Z" fill="#16110D"/>
<path d="M17.0305 115.409C17.6209 115.409 18.0996 115.128 18.0996 114.78C18.0996 114.433 17.6209 114.152 17.0305 114.152C16.4401 114.152 15.9614 114.433 15.9614 114.78C15.9614 115.128 16.4401 115.409 17.0305 115.409Z" fill="#16110D"/>
<path d="M21.7784 112.045C22.2029 112.281 22.2029 112.674 21.7784 112.925C21.3539 113.161 20.6779 113.161 20.2534 112.925C19.8289 112.689 19.8289 112.296 20.2534 112.045C20.6779 111.809 21.3539 111.809 21.7784 112.045Z" fill="#16110D"/>
<path d="M24.9856 110.819C25.576 110.819 26.0546 110.537 26.0546 110.19C26.0546 109.842 25.576 109.561 24.9856 109.561C24.3951 109.561 23.9165 109.842 23.9165 110.19C23.9165 110.537 24.3951 110.819 24.9856 110.819Z" fill="#16110D"/>
<path d="M29.7335 107.454C30.158 107.69 30.158 108.083 29.7335 108.335C29.309 108.57 28.633 108.57 28.2085 108.335C27.784 108.099 27.784 107.706 28.2085 107.454C28.633 107.203 29.309 107.203 29.7335 107.454Z" fill="#16110D"/>
<path d="M33.711 105.159C34.1355 105.395 34.1355 105.788 33.711 106.039C33.2866 106.275 32.6105 106.275 32.186 106.039C31.7616 105.803 31.7616 105.41 32.186 105.159C32.6105 104.907 33.2866 104.907 33.711 105.159Z" fill="#16110D"/>
<path d="M37.6886 102.848C38.1131 103.084 38.1131 103.477 37.6886 103.728C37.2641 103.964 36.5881 103.964 36.1636 103.728C35.7391 103.492 35.7391 103.099 36.1636 102.848C36.5881 102.612 37.2641 102.612 37.6886 102.848Z" fill="#16110D"/>
<path d="M40.9116 101.621C41.502 101.621 41.9807 101.34 41.9807 100.993C41.9807 100.645 41.502 100.364 40.9116 100.364C40.3212 100.364 39.8425 100.645 39.8425 100.993C39.8425 101.34 40.3212 101.621 40.9116 101.621Z" fill="#16110D"/>
<path d="M45.6437 98.257C46.0681 98.4928 46.0681 98.8859 45.6437 99.1374C45.2192 99.3732 44.5431 99.3732 44.1187 99.1374C43.6942 98.9016 43.6942 98.5086 44.1187 98.257C44.5431 98.0212 45.2349 98.0212 45.6437 98.257Z" fill="#16110D"/>
<path d="M48.8667 97.0307C49.4571 97.0307 49.9357 96.7491 49.9357 96.4018C49.9357 96.0545 49.4571 95.7729 48.8667 95.7729C48.2762 95.7729 47.7976 96.0545 47.7976 96.4018C47.7976 96.7491 48.2762 97.0307 48.8667 97.0307Z" fill="#16110D"/>
<path d="M9.82993 114.34C10.2544 114.576 10.2544 114.969 9.82993 115.221C9.40545 115.456 8.72942 115.456 8.30494 115.221C7.88045 114.985 7.88045 114.592 8.30494 114.34C8.72942 114.104 9.42117 114.104 9.82993 114.34Z" fill="#16110D"/>
<path d="M13.8075 112.045C14.232 112.281 14.232 112.674 13.8075 112.925C13.383 113.161 12.707 113.161 12.2825 112.925C11.858 112.689 11.858 112.296 12.2825 112.045C12.707 111.809 13.3987 111.809 13.8075 112.045Z" fill="#16110D"/>
<path d="M17.0305 110.819C17.6209 110.819 18.0996 110.537 18.0996 110.19C18.0996 109.842 17.6209 109.561 17.0305 109.561C16.4401 109.561 15.9614 109.842 15.9614 110.19C15.9614 110.537 16.4401 110.819 17.0305 110.819Z" fill="#16110D"/>
<path d="M21.7784 107.454C22.2029 107.69 22.2029 108.083 21.7784 108.335C21.3539 108.57 20.6779 108.57 20.2534 108.335C19.8289 108.099 19.8289 107.706 20.2534 107.454C20.6779 107.203 21.3539 107.203 21.7784 107.454Z" fill="#16110D"/>
<path d="M24.9856 106.212C25.576 106.212 26.0546 105.931 26.0546 105.583C26.0546 105.236 25.576 104.954 24.9856 104.954C24.3951 104.954 23.9165 105.236 23.9165 105.583C23.9165 105.931 24.3951 106.212 24.9856 106.212Z" fill="#16110D"/>
<path d="M29.7335 102.848C30.158 103.084 30.158 103.477 29.7335 103.728C29.309 103.964 28.633 103.964 28.2085 103.728C27.784 103.492 27.784 103.099 28.2085 102.848C28.633 102.612 29.309 102.612 29.7335 102.848Z" fill="#16110D"/>
<path d="M33.711 100.552C34.1355 100.788 34.1355 101.181 33.711 101.433C33.2866 101.669 32.6105 101.669 32.186 101.433C31.7616 101.197 31.7616 100.804 32.186 100.552C32.6105 100.317 33.2866 100.317 33.711 100.552Z" fill="#16110D"/>
<path d="M37.6886 98.257C38.1131 98.4928 38.1131 98.8859 37.6886 99.1374C37.2641 99.3732 36.5881 99.3732 36.1636 99.1374C35.7391 98.9016 35.7391 98.5086 36.1636 98.257C36.5881 98.0212 37.2641 98.0212 37.6886 98.257Z" fill="#16110D"/>
<path d="M40.9116 97.0307C41.502 97.0307 41.9807 96.7491 41.9807 96.4018C41.9807 96.0545 41.502 95.7729 40.9116 95.7729C40.3212 95.7729 39.8425 96.0545 39.8425 96.4018C39.8425 96.7491 40.3212 97.0307 40.9116 97.0307Z" fill="#16110D"/>
<path d="M45.6437 93.6663C46.0681 93.9021 46.0681 94.2951 45.6437 94.5467C45.2192 94.7825 44.5431 94.7825 44.1187 94.5467C43.6942 94.3108 43.6942 93.9178 44.1187 93.6663C44.5431 93.4147 45.2349 93.4147 45.6437 93.6663Z" fill="#16110D"/>
<path d="M5.85239 112.045C6.27688 112.281 6.27688 112.674 5.85239 112.925C5.42791 113.161 4.75188 113.161 4.3274 112.925C3.90291 112.689 3.90291 112.296 4.3274 112.045C4.75188 111.809 5.42791 111.809 5.85239 112.045Z" fill="#16110D"/>
<path d="M9.82993 109.75C10.2544 109.985 10.2544 110.378 9.82993 110.63C9.40545 110.866 8.72942 110.866 8.30494 110.63C7.88045 110.394 7.88045 110.001 8.30494 109.75C8.72942 109.498 9.42117 109.498 9.82993 109.75Z" fill="#16110D"/>
<path d="M13.8075 107.454C14.232 107.69 14.232 108.083 13.8075 108.335C13.383 108.57 12.707 108.57 12.2825 108.335C11.858 108.099 11.858 107.706 12.2825 107.454C12.707 107.203 13.3987 107.203 13.8075 107.454Z" fill="#16110D"/>
<path d="M17.0305 106.212C17.6209 106.212 18.0996 105.931 18.0996 105.583C18.0996 105.236 17.6209 104.954 17.0305 104.954C16.4401 104.954 15.9614 105.236 15.9614 105.583C15.9614 105.931 16.4401 106.212 17.0305 106.212Z" fill="#16110D"/>
<path d="M21.7784 102.848C22.2029 103.084 22.2029 103.477 21.7784 103.728C21.3539 103.964 20.6779 103.964 20.2534 103.728C19.8289 103.492 19.8289 103.099 20.2534 102.848C20.6779 102.612 21.3539 102.612 21.7784 102.848Z" fill="#16110D"/>
<path d="M24.9856 101.621C25.576 101.621 26.0546 101.34 26.0546 100.993C26.0546 100.645 25.576 100.364 24.9856 100.364C24.3951 100.364 23.9165 100.645 23.9165 100.993C23.9165 101.34 24.3951 101.621 24.9856 101.621Z" fill="#16110D"/>
<path d="M29.7335 98.257C30.158 98.4928 30.158 98.8859 29.7335 99.1374C29.309 99.3732 28.633 99.3732 28.2085 99.1374C27.784 98.9016 27.784 98.5086 28.2085 98.257C28.633 98.0212 29.309 98.0212 29.7335 98.257Z" fill="#16110D"/>
<path d="M32.9565 97.0307C33.5469 97.0307 34.0256 96.7491 34.0256 96.4018C34.0256 96.0545 33.5469 95.7729 32.9565 95.7729C32.3661 95.7729 31.8875 96.0545 31.8875 96.4018C31.8875 96.7491 32.3661 97.0307 32.9565 97.0307Z" fill="#16110D"/>
<path d="M37.6886 93.6663C38.1131 93.9021 38.1131 94.2951 37.6886 94.5467C37.2641 94.7825 36.5881 94.7825 36.1636 94.5467C35.7391 94.3108 35.7391 93.9178 36.1636 93.6663C36.5881 93.4147 37.2641 93.4147 37.6886 93.6663Z" fill="#16110D"/>
<path d="M41.6661 91.3709C42.0906 91.6067 42.0906 91.9998 41.6661 92.2513C41.2416 92.4871 40.5656 92.4871 40.1411 92.2513C39.7166 92.0155 39.7166 91.6225 40.1411 91.3709C40.5656 91.1194 41.2416 91.1194 41.6661 91.3709Z" fill="#16110D"/>
<path d="M1.07298 110.787C1.66341 110.787 2.14205 110.506 2.14205 110.158C2.14205 109.811 1.66341 109.529 1.07298 109.529C0.482545 109.529 0.00390625 109.811 0.00390625 110.158C0.00390625 110.506 0.482545 110.787 1.07298 110.787Z" fill="#16110D"/>
<path d="M5.8209 107.423C6.24538 107.659 6.24538 108.052 5.8209 108.303C5.39641 108.539 4.72039 108.539 4.2959 108.303C3.87142 108.067 3.87142 107.674 4.2959 107.423C4.72039 107.187 5.39641 107.187 5.8209 107.423Z" fill="#16110D"/>
<path d="M9.79844 105.127C10.2229 105.363 10.2229 105.756 9.79844 106.008C9.37395 106.244 8.69792 106.244 8.27344 106.008C7.84896 105.772 7.84896 105.379 8.27344 105.127C8.69792 104.892 9.37395 104.892 9.79844 105.127Z" fill="#16110D"/>
<path d="M13.776 102.832C14.2005 103.068 14.2005 103.461 13.776 103.712C13.3515 103.948 12.6755 103.948 12.251 103.712C11.8265 103.477 11.8265 103.084 12.251 102.832C12.6755 102.58 13.3515 102.58 13.776 102.832Z" fill="#16110D"/>
<path d="M17.7535 100.537C18.178 100.772 18.178 101.165 17.7535 101.417C17.329 101.653 16.653 101.653 16.2285 101.417C15.804 101.181 15.804 100.788 16.2285 100.537C16.653 100.285 17.3448 100.285 17.7535 100.537Z" fill="#16110D"/>
<path d="M21.7311 98.2413C22.1555 98.4771 22.1555 98.8701 21.7311 99.1217C21.3066 99.3575 20.6305 99.3575 20.2061 99.1217C19.7816 98.8859 19.7816 98.4928 20.2061 98.2413C20.6305 97.9897 21.3223 97.9897 21.7311 98.2413Z" fill="#16110D"/>
<path d="M25.7245 95.9302C26.1489 96.166 26.1489 96.559 25.7245 96.8106C25.3 97.0464 24.6239 97.0464 24.1995 96.8106C23.775 96.5748 23.775 96.1817 24.1995 95.9302C24.6082 95.6943 25.3 95.6943 25.7245 95.9302Z" fill="#16110D"/>
<path d="M29.702 93.6349C30.1265 93.8707 30.1265 94.2637 29.702 94.5153C29.2775 94.7511 28.6015 94.7511 28.177 94.5153C27.7525 94.2795 27.7525 93.8864 28.177 93.6349C28.6015 93.3991 29.2775 93.3991 29.702 93.6349Z" fill="#16110D"/>
<path d="M32.9094 92.4085C33.4998 92.4085 33.9785 92.127 33.9785 91.7797C33.9785 91.4324 33.4998 91.1508 32.9094 91.1508C32.319 91.1508 31.8403 91.4324 31.8403 91.7797C31.8403 92.127 32.319 92.4085 32.9094 92.4085Z" fill="#16110D"/>
<path d="M37.6573 89.0441C38.0818 89.2799 38.0818 89.673 37.6573 89.9245C37.2328 90.1604 36.5568 90.1604 36.1323 89.9245C35.7078 89.6887 35.7078 89.2957 36.1323 89.0441C36.5568 88.8083 37.2328 88.8083 37.6573 89.0441Z" fill="#16110D"/>
<path d="M1.84336 105.127C2.26784 105.363 2.26784 105.756 1.84336 106.008C1.41888 106.244 0.742846 106.244 0.318363 106.008C-0.106121 105.772 -0.106121 105.379 0.318363 105.127C0.742846 104.892 1.41888 104.892 1.84336 105.127Z" fill="#16110D"/>
<path d="M5.8209 102.832C6.24538 103.068 6.24538 103.461 5.8209 103.712C5.39641 103.948 4.72039 103.948 4.2959 103.712C3.87142 103.477 3.87142 103.084 4.2959 102.832C4.72039 102.58 5.39641 102.58 5.8209 102.832Z" fill="#16110D"/>
<path d="M9.04392 101.606C9.63435 101.606 10.113 101.324 10.113 100.977C10.113 100.63 9.63435 100.348 9.04392 100.348C8.45349 100.348 7.97485 100.63 7.97485 100.977C7.97485 101.324 8.45349 101.606 9.04392 101.606Z" fill="#16110D"/>
<path d="M13.0215 99.3103C13.6119 99.3103 14.0905 99.0288 14.0905 98.6815C14.0905 98.3342 13.6119 98.0526 13.0215 98.0526C12.431 98.0526 11.9524 98.3342 11.9524 98.6815C11.9524 99.0288 12.431 99.3103 13.0215 99.3103Z" fill="#16110D"/>
<path d="M17.7535 95.9302C18.178 96.166 18.178 96.559 17.7535 96.8106C17.329 97.0464 16.653 97.0464 16.2285 96.8106C15.804 96.5748 15.804 96.1817 16.2285 95.9302C16.653 95.6943 17.3448 95.6943 17.7535 95.9302Z" fill="#16110D"/>
<path d="M21.7311 93.6349C22.1555 93.8707 22.1555 94.2637 21.7311 94.5153C21.3066 94.7511 20.6305 94.7511 20.2061 94.5153C19.7816 94.2795 19.7816 93.8864 20.2061 93.6349C20.6305 93.3991 21.3223 93.3991 21.7311 93.6349Z" fill="#16110D"/>
<path d="M25.7245 91.3395C26.1489 91.5753 26.1489 91.9683 25.7245 92.2199C25.3 92.4557 24.6239 92.4557 24.1995 92.2199C23.775 91.9841 23.775 91.591 24.1995 91.3395C24.6082 91.1036 25.3 91.1036 25.7245 91.3395Z" fill="#16110D"/>
<path d="M29.702 89.0441C30.1265 89.2799 30.1265 89.673 29.702 89.9245C29.2775 90.1761 28.6015 90.1604 28.177 89.9245C27.7525 89.6887 27.7525 89.2957 28.177 89.0441C28.6015 88.8083 29.2775 88.8083 29.702 89.0441Z" fill="#16110D"/>
<path d="M33.6798 86.7488C34.1043 86.9846 34.1043 87.3776 33.6798 87.6292C33.2553 87.865 32.5793 87.865 32.1548 87.6292C31.7303 87.3934 31.7303 87.0003 32.1548 86.7488C32.5793 86.4972 33.2553 86.4972 33.6798 86.7488Z" fill="#16110D"/>
<path d="M60.0449 98.2885C60.4693 98.0526 61.1454 98.0369 61.5699 98.2885C61.9943 98.5243 61.9943 98.9173 61.5699 99.1689C61.1454 99.4047 60.4693 99.4204 60.0449 99.1689C59.6361 98.9331 59.6361 98.54 60.0449 98.2885Z" fill="#16110D"/>
<path d="M64.7927 97.0622C65.3831 97.0622 65.8618 96.7806 65.8618 96.4333C65.8618 96.086 65.3831 95.8044 64.7927 95.8044C64.2023 95.8044 63.7236 96.086 63.7236 96.4333C63.7236 96.7806 64.2023 97.0622 64.7927 97.0622Z" fill="#16110D"/>
<path d="M68.7702 94.7668C69.3607 94.7668 69.8393 94.4853 69.8393 94.138C69.8393 93.7906 69.3607 93.5091 68.7702 93.5091C68.1798 93.5091 67.7012 93.7906 67.7012 94.138C67.7012 94.4853 68.1798 94.7668 68.7702 94.7668Z" fill="#16110D"/>
<path d="M73.5182 91.4024C73.9426 91.6382 73.9426 92.0313 73.5182 92.2828C73.0937 92.5186 72.4177 92.5186 71.9932 92.2828C71.5687 92.047 71.5687 91.654 71.9932 91.4024C72.4177 91.1509 73.0937 91.1509 73.5182 91.4024Z" fill="#16110D"/>
<path d="M77.4957 89.0913C77.9202 89.3271 77.9202 89.7202 77.4957 89.9717C77.0712 90.2076 76.3952 90.2076 75.9707 89.9717C75.5462 89.7359 75.5462 89.3429 75.9707 89.0913C76.3952 88.8398 77.0712 88.8555 77.4957 89.0913Z" fill="#16110D"/>
<path d="M56.0673 95.9931C56.4918 95.7573 57.1678 95.7416 57.5923 95.9931C58.0168 96.2289 58.0168 96.622 57.5923 96.8735C57.1678 97.1093 56.4918 97.1251 56.0673 96.8735C55.6586 96.6377 55.6586 96.2447 56.0673 95.9931Z" fill="#16110D"/>
<path d="M60.8152 94.7668C61.4056 94.7668 61.8842 94.4853 61.8842 94.138C61.8842 93.7906 61.4056 93.5091 60.8152 93.5091C60.2247 93.5091 59.7461 93.7906 59.7461 94.138C59.7461 94.4853 60.2247 94.7668 60.8152 94.7668Z" fill="#16110D"/>
<path d="M64.7927 92.4715C65.3831 92.4715 65.8618 92.1899 65.8618 91.8426C65.8618 91.4953 65.3831 91.2137 64.7927 91.2137C64.2023 91.2137 63.7236 91.4953 63.7236 91.8426C63.7236 92.1899 64.2023 92.4715 64.7927 92.4715Z" fill="#16110D"/>
<path d="M69.5406 89.0913C69.9651 89.3271 69.9651 89.7202 69.5406 89.9717C69.1161 90.2075 68.4401 90.2075 68.0156 89.9717C67.5911 89.7359 67.5911 89.3428 68.0156 89.0913C68.4401 88.8555 69.1161 88.8555 69.5406 89.0913Z" fill="#16110D"/>
<path d="M73.5182 86.7959C73.9426 87.0318 73.9426 87.4248 73.5182 87.6764C73.0937 87.9122 72.4177 87.9122 71.9932 87.6764C71.5687 87.4405 71.5687 87.0475 71.9932 86.7959C72.4177 86.5601 73.0937 86.5601 73.5182 86.7959Z" fill="#16110D"/>
<path d="M77.4957 84.5006C77.9202 84.7364 77.9202 85.1295 77.4957 85.381C77.0712 85.6326 76.3952 85.6168 75.9707 85.381C75.5462 85.1452 75.5462 84.7521 75.9707 84.5006C76.3952 84.2648 77.0712 84.2648 77.4957 84.5006Z" fill="#16110D"/>
<path d="M52.0898 93.6977C52.5143 93.4619 53.1903 93.4462 53.6148 93.6977C54.0393 93.9335 54.0393 94.3266 53.6148 94.5781C53.1903 94.8139 52.5143 94.8297 52.0898 94.5781C51.681 94.3266 51.681 93.9335 52.0898 93.6977Z" fill="#16110D"/>
<path d="M57.5924 91.4024C58.0169 91.6382 58.0169 92.0313 57.5924 92.2828C57.1679 92.5186 56.4919 92.5186 56.0674 92.2828C55.6429 92.047 55.6429 91.654 56.0674 91.4024C56.4919 91.1509 57.1836 91.1509 57.5924 91.4024Z" fill="#16110D"/>
<path d="M60.8152 90.1604C61.4056 90.1604 61.8842 89.8788 61.8842 89.5315C61.8842 89.1842 61.4056 88.9026 60.8152 88.9026C60.2247 88.9026 59.7461 89.1842 59.7461 89.5315C59.7461 89.8788 60.2247 90.1604 60.8152 90.1604Z" fill="#16110D"/>
<path d="M65.5631 86.7959C65.9876 87.0318 65.9876 87.4248 65.5631 87.6764C65.1386 87.9122 64.4626 87.9122 64.0381 87.6764C63.6136 87.4405 63.6136 87.0475 64.0381 86.7959C64.4626 86.5601 65.1386 86.5601 65.5631 86.7959Z" fill="#16110D"/>
<path d="M68.7702 85.5696C69.3607 85.5696 69.8393 85.2881 69.8393 84.9408C69.8393 84.5934 69.3607 84.3119 68.7702 84.3119C68.1798 84.3119 67.7012 84.5934 67.7012 84.9408C67.7012 85.2881 68.1798 85.5696 68.7702 85.5696Z" fill="#16110D"/>
<path d="M73.5182 82.2052C73.9426 82.4411 73.9426 82.8341 73.5182 83.0857C73.0937 83.3215 72.4177 83.3215 71.9932 83.0857C71.5687 82.8498 71.5687 82.4568 71.9932 82.2052C72.4177 81.9694 73.0937 81.9694 73.5182 82.2052Z" fill="#16110D"/>
<path d="M48.1121 91.4024C48.5365 91.1665 49.2126 91.1508 49.6371 91.4024C50.0615 91.6382 50.0615 92.0312 49.6371 92.2828C49.2126 92.5186 48.5365 92.5343 48.1121 92.2828C47.7033 92.0312 47.6876 91.6382 48.1121 91.4024Z" fill="#16110D"/>
<path d="M52.8601 90.1604C53.4505 90.1604 53.9292 89.8788 53.9292 89.5315C53.9292 89.1842 53.4505 88.9026 52.8601 88.9026C52.2697 88.9026 51.791 89.1842 51.791 89.5315C51.791 89.8788 52.2697 90.1604 52.8601 90.1604Z" fill="#16110D"/>
<path d="M57.5924 86.7959C58.0169 87.0318 58.0169 87.4248 57.5924 87.6764C57.1679 87.9122 56.4919 87.9122 56.0674 87.6764C55.6429 87.4405 55.6429 87.0475 56.0674 86.7959C56.4919 86.5601 57.1836 86.5601 57.5924 86.7959Z" fill="#16110D"/>
<path d="M61.5855 84.5006C62.01 84.7364 62.01 85.1295 61.5855 85.381C61.1611 85.6168 60.485 85.6168 60.0606 85.381C59.6361 85.1452 59.6361 84.7521 60.0606 84.5006C60.485 84.2648 61.1611 84.2648 61.5855 84.5006Z" fill="#16110D"/>
<path d="M64.7927 83.2743C65.3831 83.2743 65.8618 82.9927 65.8618 82.6454C65.8618 82.2981 65.3831 82.0165 64.7927 82.0165C64.2023 82.0165 63.7236 82.2981 63.7236 82.6454C63.7236 82.9927 64.2023 83.2743 64.7927 83.2743Z" fill="#16110D"/>
<path d="M69.5406 79.9099C69.9651 80.1457 69.9651 80.5387 69.5406 80.7903C69.1161 81.0261 68.4401 81.0261 68.0156 80.7903C67.5911 80.5544 67.5911 80.1614 68.0156 79.9099C68.4401 79.6583 69.1161 79.6583 69.5406 79.9099Z" fill="#16110D"/>
<path d="M44.1345 89.107C44.559 88.8712 45.235 88.8555 45.6595 89.107C46.084 89.3428 46.084 89.7359 45.6595 89.9874C45.235 90.2232 44.559 90.239 44.1345 89.9874C43.71 89.7359 43.71 89.3428 44.1345 89.107Z" fill="#16110D"/>
<path d="M49.6371 86.7959C50.0615 87.0318 50.0615 87.4248 49.6371 87.6764C49.2126 87.9122 48.5365 87.9122 48.1121 87.6764C47.6876 87.4405 47.6876 87.0475 48.1121 86.7959C48.5365 86.5601 49.2283 86.5601 49.6371 86.7959Z" fill="#16110D"/>
<path d="M53.6146 84.5006C54.0391 84.7364 54.0391 85.1295 53.6146 85.381C53.1901 85.6168 52.5141 85.6168 52.0896 85.381C51.6651 85.1452 51.6651 84.7521 52.0896 84.5006C52.5141 84.2648 53.2058 84.2648 53.6146 84.5006Z" fill="#16110D"/>
<path d="M57.5924 82.2052C58.0169 82.4411 58.0169 82.8341 57.5924 83.0857C57.1679 83.3215 56.4919 83.3215 56.0674 83.0857C55.6429 82.8498 55.6429 82.4568 56.0674 82.2052C56.4919 81.9694 57.1836 81.9694 57.5924 82.2052Z" fill="#16110D"/>
<path d="M60.8152 80.9789C61.4056 80.9789 61.8842 80.6974 61.8842 80.3501C61.8842 80.0027 61.4056 79.7212 60.8152 79.7212C60.2247 79.7212 59.7461 80.0027 59.7461 80.3501C59.7461 80.6974 60.2247 80.9789 60.8152 80.9789Z" fill="#16110D"/>
<path d="M64.7927 78.6836C65.3831 78.6836 65.8618 78.402 65.8618 78.0547C65.8618 77.7074 65.3831 77.4258 64.7927 77.4258C64.2023 77.4258 63.7236 77.7074 63.7236 78.0547C63.7236 78.402 64.2023 78.6836 64.7927 78.6836Z" fill="#16110D"/>
<path d="M40.1255 86.7802C40.55 86.5444 41.226 86.5287 41.6505 86.7802C42.075 87.016 42.075 87.4091 41.6505 87.6606C41.226 87.8965 40.55 87.9122 40.1255 87.6606C39.701 87.4091 39.701 87.016 40.1255 86.7802Z" fill="#16110D"/>
<path d="M45.628 84.4849C46.0525 84.7207 46.0525 85.1137 45.628 85.3653C45.2035 85.6011 44.5275 85.6011 44.103 85.3653C43.6785 85.1294 43.6785 84.7364 44.103 84.4849C44.5275 84.2333 45.2035 84.2333 45.628 84.4849Z" fill="#16110D"/>
<path d="M49.6056 82.1895C50.03 82.4253 50.03 82.8184 49.6056 83.0699C49.1811 83.3058 48.5051 83.3058 48.0806 83.0699C47.6561 82.8341 47.6561 82.4411 48.0806 82.1895C48.5051 81.938 49.1811 81.938 49.6056 82.1895Z" fill="#16110D"/>
<path d="M53.5831 79.8785C54.0076 80.1143 54.0076 80.5073 53.5831 80.7589C53.1586 80.9947 52.4826 80.9947 52.0581 80.7589C51.6336 80.523 51.6336 80.13 52.0581 79.8785C52.4826 79.6426 53.1586 79.6426 53.5831 79.8785Z" fill="#16110D"/>
<path d="M57.5606 77.5831C57.9851 77.8189 57.9851 78.2119 57.5606 78.4635C57.1362 78.6993 56.4601 78.6993 56.0356 78.4635C55.6112 78.2276 55.6112 77.8346 56.0356 77.5831C56.4601 77.3472 57.1519 77.3472 57.5606 77.5831Z" fill="#16110D"/>
<path d="M60.7837 76.3568C61.3741 76.3568 61.8527 76.0752 61.8527 75.7279C61.8527 75.3806 61.3741 75.0991 60.7837 75.0991C60.1932 75.0991 59.7146 75.3806 59.7146 75.7279C59.7146 76.0752 60.1932 76.3568 60.7837 76.3568Z" fill="#16110D"/>
<path d="M36.148 84.4849C36.5724 84.2491 37.2485 84.2333 37.6729 84.4849C38.0974 84.7207 38.0974 85.1137 37.6729 85.3653C37.2485 85.6011 36.5724 85.6168 36.148 85.3653C35.7235 85.1137 35.7235 84.7207 36.148 84.4849Z" fill="#16110D"/>
<path d="M40.8801 83.2428C41.4705 83.2428 41.9492 82.9613 41.9492 82.614C41.9492 82.2667 41.4705 81.9851 40.8801 81.9851C40.2897 81.9851 39.811 82.2667 39.811 82.614C39.811 82.9613 40.2897 83.2428 40.8801 83.2428Z" fill="#16110D"/>
<path d="M45.628 79.8785C46.0525 80.1143 46.0525 80.5073 45.628 80.7589C45.2035 80.9947 44.5275 80.9947 44.103 80.7589C43.6785 80.523 43.6785 80.13 44.103 79.8785C44.5275 79.6426 45.2035 79.6426 45.628 79.8785Z" fill="#16110D"/>
<path d="M49.6056 77.5831C50.03 77.8189 50.03 78.2119 49.6056 78.4635C49.1811 78.6993 48.5051 78.6993 48.0806 78.4635C47.6561 78.2276 47.6561 77.8346 48.0806 77.5831C48.5051 77.3472 49.1811 77.3472 49.6056 77.5831Z" fill="#16110D"/>
<path d="M53.5833 75.2877C54.0078 75.5236 54.0078 75.9166 53.5833 76.1682C53.1588 76.404 52.4828 76.404 52.0583 76.1682C51.6495 75.9323 53.1588 75.0519 53.5833 75.2877Z" fill="#16110D"/>
<path d="M33.6797 82.1895C34.1042 82.4253 34.1042 82.8184 33.6797 83.0699C33.2552 83.3057 32.5792 83.3057 32.1547 83.0699C31.746 82.8184 33.2552 81.938 33.6797 82.1895Z" fill="#16110D"/>
<path d="M37.6728 79.8784C38.0973 80.1143 38.0973 80.5073 37.6728 80.7588C37.2484 80.9947 36.5723 80.9947 36.1478 80.7588C35.7234 80.523 37.2484 79.6426 37.6728 79.8784Z" fill="#16110D"/>
<path d="M71.773 79.3596L71.663 9.82294H39.3865L39.4808 79.0609C39.4651 79.1553 39.4651 79.2496 39.4808 79.3596C39.5594 79.9256 39.9996 80.5073 40.8014 80.9633L52.8442 87.9122C54.4478 88.8398 56.8846 88.9341 58.2681 88.1323L70.8297 80.8847C71.5372 80.4759 71.8516 79.9256 71.773 79.3596Z" fill="#FF9900"/>
<path d="M55.9099 89.2799C54.7465 89.2799 53.5202 88.9969 52.5455 88.431L40.5027 81.482C39.5594 80.9475 38.9934 80.2086 38.8834 79.4382C38.8677 79.2967 38.8677 79.1552 38.8834 78.998L38.7891 10.2474C38.7891 9.68139 39.245 9.22546 39.811 9.22546H71.2385C71.8045 9.22546 72.2604 9.68139 72.2604 10.2474L72.3704 79.3282C72.4648 80.1457 72.0088 80.9003 71.1441 81.4034L58.5826 88.6511C57.8594 89.0756 56.9004 89.2799 55.9099 89.2799ZM39.9839 10.4203L40.0782 79.0609C40.0625 79.1867 40.0625 79.2338 40.0782 79.281C40.1254 79.674 40.5027 80.0985 41.1001 80.4444L53.1429 87.3933C54.5578 88.2109 56.7746 88.3052 57.9852 87.6134L70.5467 80.3658C70.8612 80.1771 71.2385 79.8627 71.1756 79.4225V79.3439L71.0655 10.4203H39.9839Z" fill="#15100C"/>
<path d="M70.751 11.4422L58.1894 18.6899C56.7902 19.4917 54.3691 19.3974 52.7655 18.4698L40.7227 11.5209C39.1191 10.5933 38.9462 9.19406 40.3297 8.39225L52.8913 1.14459C54.2905 0.342786 56.7116 0.437115 58.3152 1.36469L70.358 8.31364C71.9616 9.24122 72.1345 10.6404 70.751 11.4422Z" fill="#FF9900"/>
<path d="M52.9072 5.48376L41.5562 12.0397L52.7185 18.4855C54.3221 19.4131 56.759 19.5074 58.1425 18.7056L69.4935 12.1497L58.3311 5.70386C56.7275 4.77629 54.3064 4.68196 52.9072 5.48376Z" fill="#FCEBCC"/>
<path d="M55.8156 19.8376C54.6522 19.8376 53.4259 19.5546 52.4512 18.9886L40.4084 12.0396C39.3708 11.4422 38.7734 10.609 38.7891 9.74429C38.7891 8.98965 39.2293 8.32935 40.0311 7.87342L52.5927 0.625754C54.1806 -0.286099 56.8218 -0.19177 58.6141 0.845857L70.6568 7.79481C71.6945 8.39223 72.2762 9.22548 72.2762 10.0902C72.2762 10.8448 71.836 11.5051 71.0342 11.961L58.4726 19.2087C57.7494 19.6332 56.8061 19.8376 55.8156 19.8376ZM55.2339 1.19173C54.4636 1.19173 53.7247 1.34895 53.1744 1.64766L40.6128 8.89532C40.3141 9.06826 39.9682 9.35125 39.9682 9.74429C39.9682 10.1531 40.3456 10.6247 41.0059 11.002L53.0486 17.951C54.4636 18.7685 56.6803 18.8628 57.8909 18.1711L70.4525 10.9234C70.7512 10.7505 71.097 10.4675 71.097 10.0744C71.097 9.66568 70.704 9.19404 70.0594 8.81672L58.0167 1.88348C57.2306 1.42756 56.2087 1.19173 55.2339 1.19173Z" fill="#15100C"/>
<path d="M55.7685 19.2402L55.5798 88.6668L58.284 88.1323L71.7888 80.3658L71.6631 11.0649L60.8466 16.9763L57.0577 19.1144L55.7685 19.2402Z" fill="#15100C"/>
<path d="M49.8887 92.1099L49.7944 53.1832H23.665L23.7436 91.8741C23.7279 91.9527 23.7279 92.0313 23.7436 92.1099C23.8065 92.5658 24.1681 93.0375 24.8127 93.4148L34.5601 99.0431C35.865 99.7978 37.8302 99.8764 38.9622 99.2318L49.1341 93.3519C49.7158 93.0217 49.9516 92.5815 49.8887 92.1099Z" fill="#FF9900"/>
<path d="M37.0599 100.269C36.1009 100.269 35.079 100.034 34.2772 99.5619L24.5298 93.9335C23.7437 93.4776 23.2563 92.8645 23.1777 92.1884C23.162 92.0784 23.162 91.9526 23.1777 91.8111L23.0991 53.5919C23.0991 53.0416 23.5393 52.5857 24.0896 52.5857H49.4171C49.9674 52.5857 50.4076 53.0259 50.4076 53.5762L50.5019 92.0627C50.5805 92.7701 50.2032 93.4147 49.4486 93.8549L39.2767 99.7348C38.6635 100.096 37.8774 100.269 37.0599 100.269ZM24.3411 92.0312C24.3726 92.3142 24.6713 92.6287 25.1115 92.8959L34.8589 98.5243C35.9751 99.1688 37.7202 99.2475 38.6635 98.7129L48.8354 92.833C49.0712 92.6915 49.3385 92.4714 49.2913 92.1884V92.1098L49.2127 53.7805H24.2625L24.3411 91.874V92.0312Z" fill="#15100C"/>
<path d="M49.071 54.5038L38.8991 60.3837C37.7672 61.0282 35.802 60.9496 34.4971 60.195L24.7497 54.5667C23.4448 53.812 23.3033 52.6801 24.4352 52.0198L34.6071 46.1399C35.7391 45.4953 37.7043 45.5739 39.0092 46.3285L48.7566 51.9569C50.0458 52.7272 50.1873 53.8592 49.071 54.5038Z" fill="#FF9900"/>
<path d="M38.8835 60.2578L47.1373 55.4942L38.9935 50.7777C37.6887 50.0231 35.7235 49.9444 34.5915 50.589L26.3376 55.3527L34.4814 60.0534C35.8021 60.8238 37.7673 60.9024 38.8835 60.2578Z" fill="#FDECCC"/>
<path d="M36.9812 61.4212C36.0221 61.4212 35.0002 61.1854 34.1984 60.7138L24.451 55.0854C23.5706 54.5823 23.0833 53.8749 23.0833 53.136C23.0833 52.4914 23.4606 51.9097 24.1366 51.5166L34.3085 45.6367C35.6134 44.8821 37.8144 44.9607 39.308 45.8097L49.0554 51.438C49.9358 51.9411 50.4389 52.6486 50.4389 53.3875C50.4389 54.0321 50.0615 54.6138 49.3855 55.0068L39.2136 60.8867C38.5848 61.2483 37.7987 61.4212 36.9812 61.4212ZM36.5095 46.3128C35.8964 46.3128 35.3304 46.4228 34.9059 46.6744L24.734 52.5543C24.5611 52.6486 24.2781 52.8687 24.2781 53.136C24.2781 53.4189 24.5768 53.7805 25.0642 54.0478L34.8116 59.6761C35.9278 60.3207 37.6729 60.3993 38.6162 59.8648L48.7881 53.9849C48.961 53.8906 49.244 53.6705 49.244 53.4032C49.244 53.1202 48.9453 52.7586 48.4579 52.4756L38.7105 46.8473C38.0817 46.5014 37.2641 46.3128 36.5095 46.3128Z" fill="#15100C"/>
<path d="M36.8239 60.8238L36.7925 99.6719L40.5342 98.3199L49.9043 92.5029V53.9849L38.4118 60.8238H36.8239Z" fill="#15100C"/>
<path d="M31.0069 102.518L30.9126 83.1957H2.86523L2.95956 102.266C2.94384 102.345 2.94384 102.439 2.95956 102.518C3.02245 103.005 3.41549 103.508 4.10724 103.917L14.5621 109.954C15.9613 110.756 18.068 110.85 19.2786 110.143L30.1894 103.838C30.8025 103.492 31.0698 103.021 31.0069 102.518Z" fill="#FF9900"/>
<path d="M17.2191 111.212C16.1972 111.212 15.1124 110.96 14.2634 110.457L3.80854 104.42C2.9753 103.932 2.45648 103.288 2.36215 102.58C2.34643 102.455 2.34643 102.329 2.36215 102.187L2.26782 83.5887C2.26782 83.0385 2.70803 82.5983 3.25828 82.5983H30.5196C31.0698 82.5983 31.51 83.0385 31.51 83.573L31.6044 102.47C31.683 103.209 31.2899 103.901 30.5038 104.357L19.593 110.661C18.9327 111.039 18.0995 111.212 17.2191 111.212ZM3.46267 83.7931L3.54127 102.266C3.52555 102.376 3.52555 102.423 3.54127 102.455C3.58844 102.769 3.90287 103.115 4.39024 103.414L14.8451 109.451C16.0557 110.143 17.9423 110.237 18.9642 109.639L29.875 103.335C30.1265 103.178 30.4252 102.942 30.3938 102.596V102.518L30.3152 83.7931H3.46267Z" fill="#15100C"/>
<path d="M30.1107 84.6106L19.1999 90.915C17.9894 91.6067 15.8827 91.5281 14.4834 90.7263L4.02856 84.6892C2.62933 83.8874 2.48784 82.6611 3.68268 81.9694L14.5935 75.665C15.804 74.9732 17.9107 75.0519 19.31 75.8537L29.7648 81.8908C31.1641 82.6926 31.3213 83.9188 30.1107 84.6106Z" fill="#FF9900"/>
<path d="M19.247 90.7106L28.7743 85.208L19.3571 79.7684C17.9578 78.9666 15.8511 78.8722 14.6406 79.5797L5.11328 85.0823L14.5305 90.5219C15.914 91.3238 18.0365 91.4181 19.247 90.7106Z" fill="#FEEDCC"/>
<path d="M17.1406 91.9841C16.1187 91.9841 15.0339 91.7325 14.185 91.2294L3.73008 85.1923C2.8025 84.6578 2.28369 83.9032 2.28369 83.1328C2.28369 82.4568 2.67673 81.8436 3.39993 81.4349L14.3107 75.1305C15.71 74.3287 18.0368 74.4073 19.6246 75.3192L30.0795 81.3563C31.0071 81.8908 31.5259 82.6454 31.5259 83.4158C31.5259 84.0918 31.1329 84.705 30.4097 85.1137L19.4989 91.4181C18.8543 91.7954 18.021 91.9841 17.1406 91.9841ZM16.6375 75.7751C15.9772 75.7751 15.3484 75.9009 14.8924 76.1681L3.98163 82.4725C3.77725 82.5825 3.46281 82.8184 3.46281 83.1328C3.46281 83.463 3.77725 83.856 4.3275 84.1547L14.7824 90.1918C15.9929 90.8836 17.8795 90.9779 18.9014 90.3805L29.8122 84.0761C30.0009 83.9661 30.3311 83.7302 30.3311 83.4158C30.3311 83.0856 30.0166 82.7083 29.4664 82.3939L19.0115 76.3568C18.3355 75.9795 17.4551 75.7751 16.6375 75.7751Z" fill="#15100C"/>
<path d="M16.8889 91.3866V110.63L19.6402 109.718L31.2113 103.021L30.7554 84.0132L18.2567 91.3866H16.8889Z" fill="#15100C"/>
</svg>
